<svg width="36" height="36" viewBox="0 0 36 36" fill="none" xmlns="http://www.w3.org/2000/svg">
<rect x="2" y="2" width="32" height="32" rx="16" fill="#DCFCE7"/>
<rect x="2" y="2" width="32" height="32" rx="16" stroke="#F0FDF4" stroke-width="4"/>
<path d="M19.3333 11.5129V14.2666C19.3333 14.64 19.3333 14.8266 19.406 14.9692C19.4699 15.0947 19.5719 15.1967 19.6973 15.2606C19.8399 15.3333 20.0266 15.3333 20.4 15.3333H23.1537M23.3333 16.6587V21.4666C23.3333 22.5867 23.3333 23.1467 23.1153 23.5746C22.9236 23.9509 22.6176 24.2569 22.2413 24.4486C21.8135 24.6666 21.2534 24.6666 20.1333 24.6666H15.8667C14.7466 24.6666 14.1865 24.6666 13.7587 24.4486C13.3824 24.2569 13.0764 23.9509 12.8847 23.5746C12.6667 23.1467 12.6667 22.5867 12.6667 21.4666V14.5333C12.6667 13.4131 12.6667 12.8531 12.8847 12.4253C13.0764 12.0489 13.3824 11.743 13.7587 11.5512C14.1865 11.3333 14.7466 11.3333 15.8667 11.3333H18.0078C18.497 11.3333 18.7416 11.3333 18.9718 11.3885C19.1759 11.4375 19.371 11.5183 19.5499 11.628C19.7517 11.7517 19.9247 11.9246 20.2706 12.2705L22.3961 14.396C22.742 14.7419 22.9149 14.9148 23.0386 15.1167C23.1483 15.2956 23.2291 15.4907 23.2781 15.6948C23.3333 15.925 23.3333 16.1696 23.3333 16.6587Z" stroke="#84CC16" stroke-width="1.33333" stroke-linecap="round" stroke-linejoin="round"/>
</svg>
