<svg width="60" height="60" viewBox="0 0 60 60" fill="none" xmlns="http://www.w3.org/2000/svg">
<path fill-rule="evenodd" clip-rule="evenodd" d="M10 32.5C14.1421 32.5 17.5 35.8577 17.5 40V52.5C17.5 56.6423 14.1421 60 10 60C5.85788 60 2.5 56.6423 2.5 52.5V40C2.5 35.8577 5.85788 32.5 10 32.5ZM30 0C34.1423 0 37.5 3.35788 37.5 7.5V52.5C37.5 56.6423 34.1423 60 30 60C25.8577 60 22.5 56.6423 22.5 52.5V7.5C22.5 3.35788 25.8577 0 30 0ZM50 17.5C54.1423 17.5 57.5 20.8579 57.5 25V52.5C57.5 56.6423 54.1423 60 50 60C45.8577 60 42.5 56.6423 42.5 52.5V25C42.5 20.8579 45.8577 17.5 50 17.5Z" fill="#758CA3"/>
</svg>
