<svg width="365" height="173" viewBox="0 0 365 173" fill="none" xmlns="http://www.w3.org/2000/svg">
<mask id="mask0_4113_12811" style="mask-type:alpha" maskUnits="userSpaceOnUse" x="0" y="0" width="365" height="173">
<rect x="0.236328" width="364.528" height="172.816" fill="#D9D9D9"/>
</mask>
<g mask="url(#mask0_4113_12811)">
<path d="M10.2359 172.816C4.71307 172.816 0.20694 168.335 0.514038 162.821C1.9838 136.432 9.25916 110.647 21.8698 87.3262C34.4805 64.0053 52.0737 43.8002 73.3516 28.122C77.7979 24.846 84.0146 26.1634 87.0384 30.785L106.943 61.2071C109.967 65.8286 108.642 71.9952 104.281 75.3832C90.7941 85.8596 79.5992 99.0461 71.4416 114.132C63.2841 129.218 58.3788 145.805 56.9962 162.827C56.549 168.332 52.114 172.816 46.5911 172.816H10.2359Z" fill="#962DFF"/>
<path d="M85.2504 29.0325C107.743 14.4135 133.223 5.01494 159.822 1.52629C186.42 -1.96236 213.462 0.547348 238.964 8.87133C264.466 17.1953 287.782 31.1224 307.2 49.6311C326.618 68.1398 341.647 90.7606 351.184 115.834L311.044 131.102C303.785 112.02 292.348 94.8043 277.569 80.7182C262.791 66.6322 245.047 56.0329 225.638 49.6979C206.23 43.363 185.65 41.4529 165.407 44.108C145.164 46.763 125.772 53.9158 108.654 65.0416L85.2504 29.0325Z" fill="#F7F7FB"/>
<path d="M338.605 109.51C343.767 107.546 349.571 110.131 351.245 115.394C356.079 130.596 358.868 146.374 359.539 162.311C359.771 167.829 355.204 172.248 349.682 172.173L326.737 171.861C321.215 171.785 316.837 167.242 316.509 161.729C315.882 151.207 314.041 140.792 311.023 130.693C309.441 125.401 311.996 119.633 317.158 117.669L338.605 109.51Z" fill="#E0C6FD"/>
</g>
</svg>
