<svg width="18" height="18" viewBox="0 0 18 18" fill="none" xmlns="http://www.w3.org/2000/svg">
<path d="M9 1.6875V3.375" stroke="#1E7EE5" stroke-linecap="round" stroke-linejoin="round"/>
<path d="M9 14.625V16.3125" stroke="#1E7EE5" stroke-linecap="round" stroke-linejoin="round"/>
<path d="M12.9375 6.1875C12.9375 5.81816 12.8648 5.45243 12.7234 5.1112C12.5821 4.76997 12.3749 4.45993 12.1137 4.19876C11.8526 3.9376 11.5425 3.73043 11.2013 3.58909C10.8601 3.44775 10.4943 3.375 10.125 3.375H7.59375C6.84783 3.375 6.13246 3.67132 5.60501 4.19876C5.07757 4.72621 4.78125 5.44158 4.78125 6.1875C4.78125 6.93342 5.07757 7.64879 5.60501 8.17624C6.13246 8.70368 6.84783 9 7.59375 9H10.6875C11.4334 9 12.1488 9.29632 12.6762 9.82376C13.2037 10.3512 13.5 11.0666 13.5 11.8125C13.5 12.5584 13.2037 13.2738 12.6762 13.8012C12.1488 14.3287 11.4334 14.625 10.6875 14.625H7.3125C6.56658 14.625 5.85121 14.3287 5.32376 13.8012C4.79632 13.2738 4.5 12.5584 4.5 11.8125" stroke="#1E7EE5" stroke-linecap="round" stroke-linejoin="round"/>
</svg>
