<svg width="68" height="73" viewBox="0 0 68 73" fill="none" xmlns="http://www.w3.org/2000/svg">
<path fill-rule="evenodd" clip-rule="evenodd" d="M13.1281 23.2852C14.2116 23.0234 15.3191 22.8916 16.43 22.8922C25.2275 22.8922 32.3572 31.0402 32.3572 41.0872C32.3572 51.1372 25.2275 59.2852 16.43 59.2852C7.6325 59.2852 0.5 51.1402 0.5 41.0872C0.5 40.7932 0.505625 40.4962 0.519687 40.2022H0.5C0.5 25.0372 11.3 12.6982 24.575 12.6982V18.8062C20.2691 18.8062 16.2978 20.4802 13.1281 23.2852ZM48.7738 23.2852C49.8369 23.0272 50.9394 22.8922 52.07 22.8922C60.8675 22.8922 68 31.0402 68 41.0872C68 51.1372 60.8675 59.2852 52.07 59.2852C43.2725 59.2852 36.1428 51.1402 36.1428 41.0872C36.1428 40.7932 36.1484 40.4962 36.1625 40.2022H36.1428C36.1428 25.0372 46.9428 12.6982 60.2178 12.6982V18.8062C55.9091 18.8062 51.9434 20.4802 48.7738 23.2852Z" fill="#5FD58C"/>
</svg>
