<svg width="69" height="73" viewBox="0 0 69 73" fill="none" xmlns="http://www.w3.org/2000/svg">
<path fill-rule="evenodd" clip-rule="evenodd" d="M13.2297 23.2867C14.3131 23.0249 15.4206 22.8931 16.5316 22.8937C25.3291 22.8937 32.4587 31.0417 32.4587 41.0887C32.4587 51.1387 25.3291 59.2867 16.5316 59.2867C7.73406 59.2867 0.601562 51.1417 0.601562 41.0887C0.601562 40.7947 0.607188 40.4977 0.62125 40.2037H0.601562C0.601562 25.0387 11.4016 12.6997 24.6766 12.6997V18.8077C20.3706 18.8077 16.3994 20.4817 13.2297 23.2867ZM48.8753 23.2867C49.9384 23.0287 51.0409 22.8937 52.1716 22.8937C60.9691 22.8937 68.1016 31.0417 68.1016 41.0887C68.1016 51.1387 60.9691 59.2867 52.1716 59.2867C43.3741 59.2867 36.2444 51.1417 36.2444 41.0887C36.2444 40.7947 36.25 40.4977 36.2641 40.2037H36.2444C36.2444 25.0387 47.0444 12.6997 60.3194 12.6997V18.8077C56.0106 18.8077 52.045 20.4817 48.8753 23.2867Z" fill="#5FD58C"/>
</svg>
