<svg width="68" height="73" viewBox="0 0 68 73" fill="none" xmlns="http://www.w3.org/2000/svg">
<path fill-rule="evenodd" clip-rule="evenodd" d="M13.0285 22.6856C14.112 22.4238 15.2195 22.292 16.3304 22.2926C25.1279 22.2926 32.2576 30.4406 32.2576 40.4876C32.2576 50.5376 25.1279 58.6856 16.3304 58.6856C7.53289 58.6856 0.400391 50.5406 0.400391 40.4876C0.400391 40.1936 0.406016 39.8966 0.420078 39.6026H0.400391C0.400391 24.4376 11.2004 12.0986 24.4754 12.0986V18.2066C20.1695 18.2066 16.1982 19.8806 13.0285 22.6856ZM48.6741 22.6856C49.7373 22.4276 50.8398 22.2926 51.9704 22.2926C60.7679 22.2926 67.9004 30.4406 67.9004 40.4876C67.9004 50.5376 60.7679 58.6856 51.9704 58.6856C43.1729 58.6856 36.0432 50.5406 36.0432 40.4876C36.0432 40.1936 36.0488 39.8966 36.0629 39.6026H36.0432C36.0432 24.4376 46.8432 12.0986 60.1182 12.0986V18.2066C55.8095 18.2066 51.8438 19.8806 48.6741 22.6856Z" fill="#5FD58C"/>
</svg>
