<svg width="66" height="27" viewBox="0 0 66 27" fill="none" xmlns="http://www.w3.org/2000/svg">
<path d="M27.6765 14.1803C27.6765 17.0106 25.4535 19.0961 22.7255 19.0961C19.9974 19.0961 17.7744 17.0106 17.7744 14.1803C17.7744 11.3301 19.9974 9.2645 22.7255 9.2645C25.4535 9.2645 27.6765 11.3301 27.6765 14.1803ZM25.5092 14.1803C25.5092 12.4117 24.2208 11.2016 22.7255 11.2016C21.2301 11.2016 19.9417 12.4117 19.9417 14.1803C19.9417 15.9312 21.2301 17.1591 22.7255 17.1591C24.2208 17.1591 25.5092 15.929 25.5092 14.1803Z" fill="white"/>
<path d="M38.6521 14.1803C38.6521 17.0106 36.4291 19.0961 33.701 19.0961C30.973 19.0961 28.75 17.0106 28.75 14.1803C28.75 11.3323 30.973 9.2645 33.701 9.2645C36.4291 9.2645 38.6521 11.3301 38.6521 14.1803ZM36.4848 14.1803C36.4848 12.4117 35.1964 11.2016 33.701 11.2016C32.2057 11.2016 30.9173 12.4117 30.9173 14.1803C30.9173 15.9312 32.2057 17.1591 33.701 17.1591C35.1964 17.1591 36.4848 15.929 36.4848 14.1803Z" fill="white"/>
<path d="M48.9615 9.56148V18.3869C48.9615 22.0173 46.812 23.5 44.2708 23.5C41.8787 23.5 40.439 21.9064 39.8961 20.6032L41.783 19.8209C42.1191 20.621 42.9424 21.5651 44.2686 21.5651C45.8952 21.5651 46.9032 20.5656 46.9032 18.6839V17.9769H46.8276C46.3425 18.5731 45.4079 19.0939 44.2285 19.0939C41.7608 19.0939 39.5 16.9529 39.5 14.198C39.5 11.4232 41.7608 9.2645 44.2285 9.2645C45.4057 9.2645 46.3402 9.78533 46.8276 10.3638H46.9032V9.5637H48.9615V9.56148ZM47.0567 14.198C47.0567 12.4671 45.8974 11.2016 44.4221 11.2016C42.9268 11.2016 41.674 12.4671 41.674 14.198C41.674 15.9113 42.9268 17.1591 44.4221 17.1591C45.8974 17.1591 47.0567 15.9113 47.0567 14.198Z" fill="white"/>
<path d="M52.984 4.38858V18.7947H50.8701V4.38858H52.984Z" fill="white"/>
<path d="M61.8276 15.7983L63.5098 16.9153C62.9668 17.7154 61.6584 19.0939 59.3976 19.0939C56.5939 19.0939 54.5 16.9352 54.5 14.1781C54.5 11.2548 56.6117 9.2623 59.1551 9.2623C61.7163 9.2623 62.9691 11.2925 63.3785 12.3895L63.6033 12.9481L57.0056 15.6697C57.5107 16.656 58.2962 17.1591 59.3976 17.1591C60.5013 17.1591 61.2668 16.6183 61.8276 15.7983ZM56.6495 14.0296L61.0599 12.2056C60.8173 11.5917 60.0875 11.1639 59.2285 11.1639C58.1271 11.1639 56.5939 12.1324 56.6495 14.0296Z" fill="white"/>
<path d="M9.77259 12.9015V10.8159H16.8287C16.8977 11.1794 16.9333 11.6094 16.9333 12.0748C16.9333 13.6395 16.5038 15.5744 15.1197 16.953C13.7735 18.3492 12.0534 19.0939 9.77482 19.0939C5.5514 19.0939 2 15.6675 2 11.4609C2 7.2543 5.5514 3.82785 9.77482 3.82785C12.1113 3.82785 13.7757 4.74098 15.0263 5.93115L13.5487 7.40279C12.652 6.56502 11.437 5.91342 9.77259 5.91342C6.68848 5.91342 4.27637 8.38906 4.27637 11.4609C4.27637 14.5327 6.68848 17.0084 9.77259 17.0084C11.773 17.0084 12.9123 16.2083 13.6422 15.4813C14.2341 14.8918 14.6235 14.0496 14.777 12.8993L9.77259 12.9015Z" fill="white"/>
</svg>
