<svg width="30" height="26" viewBox="0 0 30 26" fill="none" xmlns="http://www.w3.org/2000/svg">
<path d="M26.7438 0.624512C28.2757 0.624512 29.5176 1.86639 29.5176 3.39832C29.5176 4.93025 28.2757 6.17212 26.7438 6.17212L3.27315 6.17212C1.74122 6.17212 0.499344 4.93024 0.499344 3.39831C0.499344 1.86638 1.74122 0.624511 3.27315 0.624511L26.7438 0.624512Z" fill="#84CC16"/>
<path d="M19.9176 10.2266C21.4495 10.2266 22.6914 11.4684 22.6914 13.0004C22.6914 14.5323 21.4495 15.7742 19.9176 15.7742L10.1026 15.7742C8.57069 15.7742 7.32881 14.5323 7.32881 13.0004C7.32881 11.4684 8.57069 10.2266 10.1026 10.2266L19.9176 10.2266Z" fill="#84CC16"/>
<path d="M15.0094 19.8281C16.5413 19.8281 17.7832 21.07 17.7832 22.6019C17.7832 24.1339 16.5413 25.3757 15.0094 25.3757C13.4775 25.3757 12.2356 24.1339 12.2356 22.6019C12.2356 21.07 13.4775 19.8281 15.0094 19.8281Z" fill="#84CC16"/>
</svg>
