<svg width="50" height="43" viewBox="0 0 50 43" fill="none" xmlns="http://www.w3.org/2000/svg">
<path d="M44.8883 0.640808C47.473 0.640808 49.5684 2.73616 49.5684 5.32091C49.5684 7.90566 47.473 10.001 44.8883 10.001L5.28741 10.001C2.70266 10.001 0.607307 7.90566 0.607307 5.32091C0.607307 2.73616 2.70266 0.640806 5.28741 0.640806L44.8883 0.640808Z" fill="white"/>
<path d="M33.3678 16.8422C35.9525 16.8422 38.0479 18.9375 38.0479 21.5223C38.0479 24.107 35.9525 26.2024 33.3678 26.2024L16.8074 26.2024C14.2226 26.2024 12.1273 24.107 12.1273 21.5223C12.1273 18.9375 14.2226 16.8422 16.8074 16.8422L33.3678 16.8422Z" fill="white"/>
<path d="M25.0885 33.0426C27.6732 33.0426 29.7686 35.138 29.7686 37.7227C29.7686 40.3075 27.6732 42.4028 25.0885 42.4028C22.5037 42.4028 20.4084 40.3075 20.4084 37.7227C20.4084 35.138 22.5037 33.0426 25.0885 33.0426Z" fill="white"/>
</svg>
