<svg width="20" height="21" viewBox="0 0 20 21" fill="none" xmlns="http://www.w3.org/2000/svg">
<path d="M10.0002 12.9999L12.5002 10.4999M12.5002 10.4999L10.0002 7.99992M12.5002 10.4999H3.3335M7.50016 6.54041V6.50008C7.50016 5.56666 7.50016 5.0996 7.68182 4.74308C7.84161 4.42948 8.09639 4.1747 8.40999 4.01491C8.76651 3.83325 9.23357 3.83325 10.167 3.83325H14.0003C14.9337 3.83325 15.3998 3.83325 15.7563 4.01491C16.0699 4.1747 16.3256 4.42948 16.4854 4.74308C16.6668 5.09925 16.6668 5.56575 16.6668 6.49734V14.5029C16.6668 15.4345 16.6668 15.9003 16.4854 16.2565C16.3256 16.5701 16.0699 16.8253 15.7563 16.9851C15.4002 17.1666 14.9343 17.1666 14.0027 17.1666H10.1643C9.23266 17.1666 8.76616 17.1666 8.40999 16.9851C8.09639 16.8253 7.84161 16.5698 7.68182 16.2562C7.50016 15.8997 7.50016 15.4333 7.50016 14.4999V14.4583" stroke="black" stroke-width="1.5" stroke-linecap="round" stroke-linejoin="round"/>
</svg>
