<svg width="25" height="25" viewBox="0 0 25 25" fill="none" xmlns="http://www.w3.org/2000/svg">
<path fill-rule="evenodd" clip-rule="evenodd" d="M9.75168 12.3602C9.76829 12.3749 9.78399 12.3888 9.79968 12.4054C10.7956 13.4263 11.3448 14.7785 11.3448 16.2138V19.8912L13.4087 18.7669C13.5712 18.6783 13.6718 18.5048 13.6718 18.3137V16.2027C13.6718 14.773 14.2155 13.4253 15.2022 12.41L19.6669 7.66102C19.9558 7.35365 20.1145 6.95028 20.1145 6.52477V5.66081C20.1145 5.23253 19.7767 4.88454 19.3632 4.88454H5.63681C5.22237 4.88454 4.88454 5.23253 4.88454 5.66081V6.52477C4.88454 6.95028 5.04331 7.35365 5.33221 7.66009L9.75168 12.3602ZM11.019 21.5C10.8325 21.5 10.6479 21.4502 10.4799 21.3505C10.155 21.1566 9.96028 20.8142 9.96028 20.4339V16.2138C9.96028 15.1662 9.56984 14.1795 8.85819 13.4235C8.83696 13.406 8.81573 13.3866 8.79727 13.3663L4.32427 8.60989C3.7926 8.045 3.5 7.3038 3.5 6.52477V5.66081C3.5 4.46918 4.45903 3.5 5.63681 3.5H19.3632C20.54 3.5 21.4991 4.46918 21.4991 5.66081V6.52477C21.4991 7.30288 21.2065 8.04315 20.6767 8.60897L16.2027 13.3663C15.4615 14.1305 15.0563 15.1357 15.0563 16.2027V18.3137C15.0563 19.0115 14.6788 19.6502 14.0715 19.9825L11.523 21.3708C11.3642 21.4566 11.1916 21.5 11.019 21.5Z" fill="black"/>
</svg>
