<svg width="26" height="26" viewBox="0 0 26 26" fill="none" xmlns="http://www.w3.org/2000/svg">
<path d="M10.8334 18.4166H15.1667V5.41663H2.16669V18.4166H5.41669" stroke="#64748B" stroke-width="2" stroke-linecap="round" stroke-linejoin="round"/>
<path d="M21.6667 18.4167H23.8334V14.7983C23.8338 14.2291 23.7221 13.6654 23.5046 13.1393C23.2871 12.6133 22.9681 12.1352 22.5659 11.7325L20.5834 9.75H15.1667" stroke="#64748B" stroke-width="2" stroke-linecap="round" stroke-linejoin="round"/>
<path d="M15.1667 18.4166H16.25" stroke="#64748B" stroke-width="2" stroke-linecap="round" stroke-linejoin="round"/>
<path d="M8.12502 21.6667C9.62079 21.6667 10.8334 20.4541 10.8334 18.9583C10.8334 17.4626 9.62079 16.25 8.12502 16.25C6.62925 16.25 5.41669 17.4626 5.41669 18.9583C5.41669 20.4541 6.62925 21.6667 8.12502 21.6667Z" stroke="#64748B" stroke-width="2" stroke-linecap="round" stroke-linejoin="round"/>
<path d="M18.9583 21.6667C20.4541 21.6667 21.6667 20.4541 21.6667 18.9583C21.6667 17.4626 20.4541 16.25 18.9583 16.25C17.4626 16.25 16.25 17.4626 16.25 18.9583C16.25 20.4541 17.4626 21.6667 18.9583 21.6667Z" stroke="#64748B" stroke-width="2" stroke-linecap="round" stroke-linejoin="round"/>
</svg>
