<svg width="26" height="26" viewBox="0 0 26 26" fill="none" xmlns="http://www.w3.org/2000/svg">
<path d="M10.7033 10.7034C10.384 11.0009 10.1279 11.3597 9.9503 11.7584C9.77267 12.157 9.67715 12.5874 9.66945 13.0238C9.66175 13.4602 9.74203 13.8936 9.90548 14.2983C10.0689 14.703 10.3122 15.0706 10.6208 15.3792C10.9295 15.6878 11.2971 15.9311 11.7018 16.0946C12.1064 16.258 12.5399 16.3383 12.9763 16.3306C13.4127 16.3229 13.843 16.2274 14.2417 16.0498C14.6403 15.8721 14.9991 15.616 15.2967 15.2967" stroke="#64748B" stroke-width="2" stroke-linecap="round" stroke-linejoin="round"/>
<path d="M11.6241 5.50329C12.0806 5.44643 12.54 5.41749 13 5.41663C20.5833 5.41663 23.8333 13 23.8333 13C23.349 14.0368 22.7415 15.0116 22.0241 15.9033" stroke="#64748B" stroke-width="2" stroke-linecap="round" stroke-linejoin="round"/>
<path d="M7.16079 7.16089C5.00631 8.6284 3.28232 10.6441 2.16663 13.0001C2.16663 13.0001 5.41663 20.5834 13 20.5834C15.0755 20.589 17.1066 19.9823 18.8391 18.8392" stroke="#64748B" stroke-width="2" stroke-linecap="round" stroke-linejoin="round"/>
<path d="M2.16663 2.16663L23.8333 23.8333" stroke="#64748B" stroke-width="2" stroke-linecap="round" stroke-linejoin="round"/>
</svg>
