<svg width="26" height="25" viewBox="0 0 26 25" fill="none" xmlns="http://www.w3.org/2000/svg">
<path fill-rule="evenodd" clip-rule="evenodd" d="M12.9598 3.5C17.6245 3.5 21.4188 7.29428 21.4188 11.959C21.4188 14.1597 20.5742 16.167 19.1921 17.6734L21.9117 20.3873C22.1662 20.6418 22.167 21.0535 21.9125 21.308C21.7857 21.4366 21.6181 21.5 21.4513 21.5C21.2854 21.5 21.1186 21.4366 20.9909 21.3098L18.2385 18.5651C16.7907 19.7246 14.9548 20.4188 12.9598 20.4188C8.29515 20.4188 4.5 16.6236 4.5 11.959C4.5 7.29428 8.29515 3.5 12.9598 3.5ZM12.9598 4.80298C9.01353 4.80298 5.80298 8.01266 5.80298 11.959C5.80298 15.9053 9.01353 19.1158 12.9598 19.1158C16.9053 19.1158 20.1158 15.9053 20.1158 11.959C20.1158 8.01266 16.9053 4.80298 12.9598 4.80298Z" fill="black"/>
</svg>
