<svg width="16" height="16" viewBox="0 0 16 16" fill="none" xmlns="http://www.w3.org/2000/svg">
<path d="M13.6134 3.05322C13.2789 2.71761 12.8815 2.45132 12.4439 2.26962C12.0064 2.08792 11.5372 1.99438 11.0634 1.99438C10.5896 1.99438 10.1204 2.08792 9.68284 2.26962C9.24526 2.45132 8.84784 2.71761 8.51339 3.05322L8.00006 3.57322L7.48672 3.05322C7.15227 2.71761 6.75486 2.45132 6.31727 2.26962C5.87969 2.08792 5.41053 1.99438 4.93672 1.99438C4.46291 1.99438 3.99376 2.08792 3.55618 2.26962C3.11859 2.45132 2.72118 2.71761 2.38672 3.05322C0.973391 4.46656 0.886724 6.85322 2.66672 8.66656L8.00006 13.9999L13.3334 8.66656C15.1134 6.85322 15.0267 4.46656 13.6134 3.05322Z" stroke="black" stroke-width="1.33333" stroke-linecap="round" stroke-linejoin="round"/>
</svg>
