<svg width="20" height="20" viewBox="0 0 20 20" fill="none" xmlns="http://www.w3.org/2000/svg">
<path d="M16.6666 16.25V16.6666C16.6666 17.1087 16.4911 17.5326 16.1785 17.8451C15.8659 18.1577 15.442 18.3333 15 18.3333H4.99998C4.55795 18.3333 4.13403 18.1577 3.82147 17.8451C3.50891 17.5326 3.33331 17.1087 3.33331 16.6666V3.33329C3.33331 2.89127 3.50891 2.46734 3.82147 2.15478C4.13403 1.84222 4.55795 1.66663 4.99998 1.66663H12.0833L15 4.58329" stroke="#94A3B8" stroke-width="2" stroke-linecap="round" stroke-linejoin="round"/>
<path d="M6.66669 15H7.50002" stroke="#94A3B8" stroke-width="2" stroke-linecap="round" stroke-linejoin="round"/>
<path d="M15.35 8.00832C15.5125 7.84581 15.7054 7.71689 15.9177 7.62894C16.1301 7.54099 16.3577 7.49573 16.5875 7.49573C16.8173 7.49573 17.0449 7.54099 17.2572 7.62894C17.4695 7.71689 17.6625 7.84581 17.825 8.00832C17.9875 8.17083 18.1164 8.36376 18.2044 8.57609C18.2923 8.78842 18.3376 9.01599 18.3376 9.24582C18.3376 9.47564 18.2923 9.70322 18.2044 9.91555C18.1164 10.1279 17.9875 10.3208 17.825 10.4833L14.125 14.1666L10.8333 15L11.6583 11.7083L15.35 8.00832Z" stroke="#94A3B8" stroke-width="2" stroke-linecap="round" stroke-linejoin="round"/>
</svg>
