<svg width="26" height="26" viewBox="0 0 26 26" fill="none" xmlns="http://www.w3.org/2000/svg">
<path d="M13.2383 2.16663H12.7617C12.187 2.16663 11.6359 2.3949 11.2296 2.80123C10.8233 3.20756 10.595 3.75866 10.595 4.33329V4.52829C10.5946 4.90825 10.4943 5.28142 10.3042 5.61037C10.114 5.93932 9.84072 6.21248 9.51167 6.40246L9.04584 6.67329C8.71646 6.86346 8.34283 6.96357 7.9625 6.96357C7.58217 6.96357 7.20854 6.86346 6.87917 6.67329L6.71667 6.58663C6.21949 6.29983 5.62883 6.22202 5.07434 6.37029C4.51985 6.51856 4.04685 6.88079 3.75917 7.37746L3.52084 7.78913C3.23404 8.28631 3.15623 8.87697 3.3045 9.43146C3.45277 9.98595 3.815 10.4589 4.31167 10.7466L4.47417 10.855C4.80163 11.044 5.07392 11.3155 5.26397 11.6424C5.45402 11.9692 5.55522 12.3402 5.5575 12.7183V13.2708C5.55902 13.6526 5.45962 14.028 5.26938 14.359C5.07914 14.69 4.80481 14.9649 4.47417 15.1558L4.31167 15.2533C3.815 15.541 3.45277 16.014 3.3045 16.5685C3.15623 17.1229 3.23404 17.7136 3.52084 18.2108L3.75917 18.6225C4.04685 19.1191 4.51985 19.4814 5.07434 19.6296C5.62883 19.7779 6.21949 19.7001 6.71667 19.4133L6.87917 19.3266C7.20854 19.1365 7.58217 19.0363 7.9625 19.0363C8.34283 19.0363 8.71646 19.1365 9.04584 19.3266L9.51167 19.5975C9.84072 19.7874 10.114 20.0606 10.3042 20.3896C10.4943 20.7185 10.5946 21.0917 10.595 21.4716V21.6666C10.595 22.2413 10.8233 22.7924 11.2296 23.1987C11.6359 23.605 12.187 23.8333 12.7617 23.8333H13.2383C13.813 23.8333 14.3641 23.605 14.7704 23.1987C15.1767 22.7924 15.405 22.2413 15.405 21.6666V21.4716C15.4054 21.0917 15.5057 20.7185 15.6958 20.3896C15.886 20.0606 16.1593 19.7874 16.4883 19.5975L16.9542 19.3266C17.2835 19.1365 17.6572 19.0363 18.0375 19.0363C18.4178 19.0363 18.7915 19.1365 19.1208 19.3266L19.2833 19.4133C19.7805 19.7001 20.3712 19.7779 20.9257 19.6296C21.4802 19.4814 21.9532 19.1191 22.2408 18.6225L22.4792 18.2C22.766 17.7028 22.8438 17.1121 22.6955 16.5576C22.5472 16.0031 22.185 15.5301 21.6883 15.2425L21.5258 15.1558C21.1952 14.9649 20.9209 14.69 20.7306 14.359C20.5404 14.028 20.441 13.6526 20.4425 13.2708V12.7291C20.441 12.3473 20.5404 11.9719 20.7306 11.6409C20.9209 11.3099 21.1952 11.035 21.5258 10.8441L21.6883 10.7466C22.185 10.4589 22.5472 9.98595 22.6955 9.43146C22.8438 8.87697 22.766 8.28631 22.4792 7.78913L22.2408 7.37746C21.9532 6.88079 21.4802 6.51856 20.9257 6.37029C20.3712 6.22202 19.7805 6.29983 19.2833 6.58663L19.1208 6.67329C18.7915 6.86346 18.4178 6.96357 18.0375 6.96357C17.6572 6.96357 17.2835 6.86346 16.9542 6.67329L16.4883 6.40246C16.1593 6.21248 15.886 5.93932 15.6958 5.61037C15.5057 5.28142 15.4054 4.90825 15.405 4.52829V4.33329C15.405 3.75866 15.1767 3.20756 14.7704 2.80123C14.3641 2.3949 13.813 2.16663 13.2383 2.16663Z" stroke="#64748B" stroke-width="2" stroke-linecap="round" stroke-linejoin="round"/>
<path d="M13 16.25C14.7949 16.25 16.25 14.7949 16.25 13C16.25 11.2051 14.7949 9.75 13 9.75C11.2051 9.75 9.75 11.2051 9.75 13C9.75 14.7949 11.2051 16.25 13 16.25Z" stroke="#64748B" stroke-width="2" stroke-linecap="round" stroke-linejoin="round"/>
</svg>
