<svg width="60" height="60" viewBox="0 0 60 60" fill="none" xmlns="http://www.w3.org/2000/svg">
<path d="M30 30C28.4215 30 26.843 29.7199 25.6125 29.1598L8.26875 21.2508C7.47539 20.8898 5.625 19.834 5.625 17.8406C5.625 15.8473 7.47539 14.7938 8.27109 14.4281L25.7648 6.45117C28.1754 5.34961 31.8129 5.34961 34.2246 6.45117L51.7289 14.4281C52.5246 14.7902 54.375 15.8461 54.375 17.8406C54.375 19.8352 52.5246 20.8875 51.7289 21.252L34.3852 29.1598C33.157 29.7199 31.5785 30 30 30Z" fill="black"/>
<path d="M51.7219 26.5793L49.9535 25.7812L45.4102 27.8602L34.3945 32.8992C33.1641 33.4617 31.582 33.7418 30.007 33.7418C28.432 33.7418 26.8512 33.4617 25.6219 32.8992L14.598 27.8602L10.0535 25.7812L8.26992 26.5828C7.47539 26.9449 5.625 28.0078 5.625 30C5.625 31.9922 7.47539 33.0563 8.26875 33.4184L25.6125 41.3437C26.8359 41.9062 28.4168 42.1875 30 42.1875C31.5832 42.1875 33.157 41.9062 34.3875 41.3449L51.716 33.4219C52.5141 33.0598 54.375 32.0027 54.375 30C54.375 27.9973 52.527 26.9449 51.7219 26.5793Z" fill="black"/>
<path d="M51.7219 38.7656L49.9535 37.9688L45.4102 40.0465L34.3945 45.0797C33.1641 45.6398 31.582 45.9211 30.007 45.9211C28.432 45.9211 26.8512 45.641 25.6219 45.0797L14.598 40.0406L10.0535 37.9688L8.26992 38.7703C7.47539 39.1324 5.625 40.1953 5.625 42.1875C5.625 44.1797 7.47539 45.2426 8.26875 45.6035L25.6125 53.5242C26.8359 54.0844 28.4227 54.375 30 54.375C31.5773 54.375 33.15 54.0844 34.3805 53.523L51.7148 45.6047C52.5141 45.2438 54.375 44.1867 54.375 42.1875C54.375 40.1883 52.527 39.1324 51.7219 38.7656Z" fill="black"/>
</svg>
