<svg width="12" height="12" viewBox="0 0 12 12" fill="none" xmlns="http://www.w3.org/2000/svg">
<path d="M6.3125 5.625V5.6875H6.375H10.125C10.2079 5.6875 10.2874 5.72042 10.346 5.77903C10.4046 5.83763 10.4375 5.91712 10.4375 6C10.4375 6.08288 10.4046 6.16237 10.346 6.22097C10.2874 6.27958 10.2079 6.3125 10.125 6.3125H6.375H6.3125V6.375V10.125C6.3125 10.2079 6.27958 10.2874 6.22097 10.346C6.16237 10.4046 6.08288 10.4375 6 10.4375C5.91712 10.4375 5.83763 10.4046 5.77903 10.346C5.72042 10.2874 5.6875 10.2079 5.6875 10.125V6.375V6.3125H5.625H1.875C1.79212 6.3125 1.71263 6.27958 1.65403 6.22097C1.59542 6.16237 1.5625 6.08288 1.5625 6C1.5625 5.91712 1.59542 5.83763 1.65403 5.77903C1.71263 5.72042 1.79212 5.6875 1.875 5.6875H5.625H5.6875V5.625V1.875C5.6875 1.79212 5.72042 1.71263 5.77903 1.65403C5.83763 1.59542 5.91712 1.5625 6 1.5625C6.08288 1.5625 6.16237 1.59542 6.22097 1.65403C6.27958 1.71263 6.3125 1.79212 6.3125 1.875V5.625Z" fill="#1E293B" stroke="#4C6C9F" stroke-width="0.125"/>
</svg>
