<svg width="89" height="50" viewBox="0 0 89 50" fill="none" xmlns="http://www.w3.org/2000/svg">
<path d="M87.5022 43.7983H15.4727V48.8654H78.2894L87.5022 43.7983Z" fill="#32313B" stroke="#32313B" stroke-width="0.64125" stroke-miterlimit="10"/>
<path d="M39.5982 22.7802L28.2682 1.49365H10.5179L0.78125 6.29841L12.1111 27.585L0.78125 48.8715H18.5316L28.2682 44.0666L39.5982 22.7802Z" fill="#EB81AF" stroke="#32313B" stroke-width="0.64125" stroke-miterlimit="10" stroke-linejoin="round"/>
<path d="M0.957031 6.1953L10.5931 1.30615L28.1564 1.40119L18.4728 6.2902L0.957031 6.1953Z" fill="#FDB2D2"/>
<path d="M39.5982 22.7802L28.2682 1.49365H10.5179L0.78125 6.29841L12.1111 27.585L0.78125 48.8715H18.5316L28.2682 44.0666L39.5982 22.7802Z" stroke="#32313B" stroke-width="0.64125" stroke-miterlimit="10" stroke-linejoin="round"/>
<path d="M18.5316 6.29053H0.78125L12.1111 27.5771L0.78125 48.8636H18.5316L29.8614 27.5771L18.5316 6.29053Z" fill="#FDB2D2" stroke="#32313B" stroke-width="0.64125" stroke-miterlimit="10" stroke-linejoin="round"/>
<path d="M18.5312 6.29841L28.268 1.49365" stroke="#32313B" stroke-width="0.64125" stroke-miterlimit="10" stroke-linejoin="round"/>
<path d="M29.8594 27.5797L39.5961 22.7749" stroke="#32313B" stroke-width="0.64125" stroke-miterlimit="10" stroke-linejoin="round"/>
<path d="M60.9028 22.7802L49.573 1.49365H31.8227L22.0859 6.29841L33.4158 27.585L22.0859 48.8715H39.8362L49.573 44.0666L60.9028 22.7802Z" fill="#F0946C" stroke="#32313B" stroke-width="0.64125" stroke-miterlimit="10" stroke-linejoin="round"/>
<path d="M22.3594 6.34681L31.9211 1.41932L49.4605 1.36084L39.7229 6.2882L22.3594 6.34681Z" fill="#FBB598"/>
<path d="M60.9028 22.7802L49.573 1.49365H31.8227L22.0859 6.29841L33.4158 27.585L22.0859 48.8715H39.8362L49.573 44.0666L60.9028 22.7802Z" stroke="#32313B" stroke-width="0.64125" stroke-miterlimit="10" stroke-linejoin="round"/>
<path d="M39.8363 6.29834H22.0859L33.4158 27.5849L22.0859 48.8714H39.8363L51.1662 27.5849L39.8363 6.29834Z" fill="#FBB598" stroke="#32313B" stroke-width="0.64125" stroke-miterlimit="10" stroke-linejoin="round"/>
<path d="M39.8359 6.29841L49.5727 1.49365" stroke="#32313B" stroke-width="0.64125" stroke-miterlimit="10" stroke-linejoin="round"/>
<path d="M51.1641 27.5797L60.9007 22.7749" stroke="#32313B" stroke-width="0.64125" stroke-miterlimit="10" stroke-linejoin="round"/>
<path d="M82.2582 22.7724L70.9283 1.48584H53.1779L43.4414 6.29059L54.7711 27.5771L43.4414 48.8637H61.1917L70.9283 44.0588L82.2582 22.7724Z" fill="#EB81AF" stroke="#32313B" stroke-width="0.64125" stroke-miterlimit="10" stroke-linejoin="round"/>
<path d="M43.7305 6.13092L53.1772 1.48584L70.594 1.60883L61.2267 6.18479L43.7305 6.13092Z" fill="#FDB2D2"/>
<path d="M82.2582 22.7724L70.9283 1.48584H53.1779L43.4414 6.29059L54.7711 27.5771L43.4414 48.8637H61.1917L70.9283 44.0588L82.2582 22.7724Z" stroke="#32313B" stroke-width="0.64125" stroke-miterlimit="10" stroke-linejoin="round"/>
<path d="M61.1917 6.29053H43.4414L54.7711 27.5771L43.4414 48.8636H61.1917L72.5216 27.5771L61.1917 6.29053Z" fill="#FDB2D2" stroke="#32313B" stroke-width="0.64125" stroke-miterlimit="10" stroke-linejoin="round"/>
<path d="M61.1914 6.29059L70.928 1.48584" stroke="#32313B" stroke-width="0.64125" stroke-miterlimit="10" stroke-linejoin="round"/>
<path d="M72.5234 27.5797L82.2601 22.7749" stroke="#32313B" stroke-width="0.64125" stroke-miterlimit="10" stroke-linejoin="round"/>
<path d="M18.6796 48.566L29.7948 27.4475L32.7016 26.0796L33.4137 27.5805L23.2111 46.5996L18.5312 48.8671" fill="#32313B"/>
<path d="M40.0546 48.566L51.1695 27.4475L54.0766 26.0796L54.7886 27.5805L44.5862 46.5996L39.9062 48.8671" fill="#32313B"/>
</svg>
