<svg width="58" height="96" viewBox="0 0 58 96" fill="none" xmlns="http://www.w3.org/2000/svg">
<path d="M6.28516 32.3927C6.28516 19.772 16.5166 9.54053 29.1373 9.54053C41.7584 9.54053 51.9897 19.772 51.9897 32.3927V72.6423H6.28516V32.3927Z" fill="#32313B"/>
<path d="M42.9736 47.8884C43.7479 47.0545 43.6998 45.7513 42.8663 44.9768L34.3759 37.0911C33.9645 36.7088 33.4387 36.5273 32.9178 36.5413L32.9123 36.5416C32.8536 36.5432 30.0568 36.7535 30.0568 36.7535C29.5284 36.7719 29.0068 36.9921 28.6183 37.4101L24.3633 41.9912C23.5888 42.8248 23.637 44.1283 24.4706 44.9026L32.9609 52.7888C33.3984 53.1948 33.9648 53.3745 34.5164 53.3332L37.3481 53.123C37.8531 53.0892 38.3471 52.8699 38.7186 52.4696L42.9736 47.8884Z" fill="#B35980" stroke="#32313B" stroke-width="0.883729" stroke-miterlimit="10" stroke-linejoin="round"/>
<path d="M35.8725 52.6809C35.0978 53.5142 33.7943 53.5625 32.961 52.7882L24.4706 44.9019C23.6369 44.1276 23.5888 42.8241 24.3633 41.9906L28.6183 37.4095C29.3926 36.5758 30.6958 36.5279 31.5295 37.3024L40.0198 45.1881C40.8535 45.9624 40.9018 47.2659 40.1275 48.0996L35.8725 52.6809Z" fill="#EB81AF" stroke="#32313B" stroke-width="0.883729" stroke-miterlimit="10"/>
<path d="M18.1878 33.7581L19.1711 34.296L18.1878 34.8338L17.65 35.8169L17.1123 34.8338L16.1289 34.296L17.1123 33.7581L17.65 32.7749L18.1878 33.7581Z" fill="#F0F4FA"/>
<path d="M26.5835 29.5903L27.2428 29.9509L26.5835 30.3113L26.2228 30.9704L25.8624 30.3113L25.2031 29.9509L25.8624 29.5903L26.2228 28.9312L26.5835 29.5903Z" fill="#F0F4FA"/>
<path d="M33.1189 18.2396L33.6771 18.545L33.1189 18.8506L32.813 19.4089L32.5079 18.8506L31.9492 18.545L32.5079 18.2396L32.813 17.6812L33.1189 18.2396Z" fill="#F0F4FA"/>
<path d="M33.3426 60.5847L33.9654 60.9255L33.3426 61.2663L33.0023 61.8886L32.6616 61.2663L32.0391 60.9255L32.6616 60.5847L33.0023 59.9624L33.3426 60.5847Z" fill="#F0F4FA"/>
<path d="M26.4926 40.6967C26.193 39.5821 24.4144 39.0918 22.5197 39.6014C20.6255 40.1108 19.3331 41.427 19.6331 42.5414C19.7057 42.8128 19.9723 43.8033 20.0449 44.0748C20.3447 45.1892 22.1233 45.6795 24.0176 45.1701C25.9116 44.6604 27.2045 43.3443 26.9048 42.2298C26.8319 41.9583 26.5654 40.968 26.4926 40.6967Z" fill="#B38847" stroke="#32313B" stroke-width="0.883729" stroke-miterlimit="10" stroke-linejoin="round"/>
<path d="M23.6092 43.6298C25.5033 43.1204 26.796 41.8042 26.4963 40.69C26.1967 39.5758 24.4182 39.0855 22.5241 39.5949C20.6299 40.1042 19.3373 41.4204 19.6369 42.5347C19.9365 43.6489 21.715 44.1392 23.6092 43.6298Z" fill="#FABE64" stroke="#32313B" stroke-width="0.883729" stroke-miterlimit="10" stroke-linejoin="round"/>
<path d="M27.2802 42.5718C27.2802 42.5718 27.2995 45.51 25.765 46.4148L24.4648 44.9038C24.4648 44.9038 26.2537 44.2966 27.2802 42.5718Z" fill="#32313B"/>
<path d="M24.8818 63.5817L26.4797 57.7227L24.8735 55.3863L19.795 52.0562L15.0586 55.857L17.2096 61.5358L18.8157 63.8722L24.8818 63.5817Z" fill="#2A7857" stroke="#32313B" stroke-width="0.706984" stroke-miterlimit="10"/>
<path d="M17.2096 61.5358L15.0586 55.857L19.795 52.0562L24.8735 55.3863L23.2755 61.2456L17.2096 61.5358Z" fill="#49B889" stroke="#32313B" stroke-width="0.706984" stroke-miterlimit="10"/>
<path d="M23.2695 61.2437L24.8758 63.5797" stroke="#32313B" stroke-width="0.706984" stroke-miterlimit="10"/>
<path d="M21.7615 23.9892L19.4262 23.39L18.7773 21.0678L20.464 19.3452L22.7994 19.9442L23.4479 22.2661L21.7615 23.9892Z" fill="#C3DE6F" stroke="#32313B" stroke-width="0.706984" stroke-miterlimit="10"/>
<path d="M39.5719 28.4882C39.2434 28.0312 38.0413 26.3607 37.7124 25.9037C36.3281 23.9798 33.6462 23.5429 31.7227 24.9272L38.5958 34.478C40.5191 33.0937 40.9566 30.4118 39.5719 28.4882Z" fill="#5178B3" stroke="#32313B" stroke-width="0.706984" stroke-miterlimit="10"/>
<path d="M31.7227 24.9271C33.6462 23.5428 36.3281 23.9799 37.7124 25.9036C39.0967 27.8273 38.6592 30.5091 36.7359 31.8937L31.7227 24.9271Z" fill="#6DA2F0" stroke="#32313B" stroke-width="0.706984" stroke-miterlimit="10"/>
<path d="M54.063 72.6153L49.4676 77.9739L47.0482 72.6153V30.8396C47.0482 20.8696 38.9368 12.7585 28.9669 12.7585C18.997 12.7585 10.886 20.8696 10.886 30.8396V72.6151L8.46649 77.9737L3.87109 72.6151V30.8396C3.87109 17.0018 15.1291 5.74365 28.9671 5.74365C42.805 5.74365 54.0632 17.0018 54.0632 30.8396L54.063 72.6153Z" fill="#8173E6" stroke="#32313B" stroke-width="0.706984" stroke-miterlimit="10" stroke-linejoin="round"/>
<path d="M57.4202 77.9851H49.4666V30.6197C49.4666 19.3155 40.27 10.1191 28.9659 10.1191C17.6617 10.1191 8.46528 19.3155 8.46528 30.6197V77.9851H0.511719V30.6197C0.511719 14.9299 13.2763 2.16553 28.9659 2.16553C44.6556 2.16553 57.4202 14.9301 57.4202 30.6197V77.9851Z" fill="#B0A6F9" stroke="#32313B" stroke-width="0.706984" stroke-miterlimit="10" stroke-linejoin="round"/>
<path d="M44.2661 79.8062H30.7212H27.2301H13.685L8.84375 93.491V95.2588H49.1072L49.0676 93.3535L44.2661 79.8062Z" fill="#2A7857" stroke="#32313B" stroke-width="0.706984" stroke-miterlimit="10" stroke-linejoin="round"/>
<path d="M44.2661 79.8062H30.7212H27.2301H13.685L8.84375 93.491H27.2301H30.7212H49.1072L44.2661 79.8062Z" fill="#81D8B4" stroke="#32313B" stroke-width="0.706984" stroke-miterlimit="10" stroke-linejoin="round"/>
</svg>
