<svg width="94" height="57" viewBox="0 0 94 57" fill="none" xmlns="http://www.w3.org/2000/svg">
<path d="M42.6367 49.0093H10.1094V56.2925H36.3578L42.6367 49.0093Z" fill="#32313B" stroke="#32313B" stroke-width="0.64125" stroke-miterlimit="10"/>
<path d="M33.2264 33.0562H6.64578L0.425781 40.2913V56.293H27.0065L33.2264 49.0579V33.0562Z" fill="#8173E6" stroke="#32313B" stroke-width="0.64125" stroke-miterlimit="10" stroke-linejoin="round"/>
<path d="M27.0064 40.2905H0.425781V56.2923H27.0064V40.2905Z" fill="#B0A6F9" stroke="#32313B" stroke-width="0.64125" stroke-miterlimit="10" stroke-linejoin="round"/>
<path d="M27.0078 40.2913L33.2277 33.0562" stroke="#32313B" stroke-width="0.64125" stroke-miterlimit="10" stroke-linejoin="round"/>
<path d="M92.4411 49.0093H59.9141V56.2925H86.631L92.4411 49.0093Z" fill="#32313B" stroke="#32313B" stroke-width="0.64125" stroke-miterlimit="10"/>
<path d="M83.0309 33.0562H56.4503L50.2305 40.2913V56.293H76.8111L83.0309 49.0579V33.0562Z" fill="#8173E6" stroke="#32313B" stroke-width="0.64125" stroke-miterlimit="10" stroke-linejoin="round"/>
<path d="M76.8111 40.2905H50.2305V56.2923H76.8111V40.2905Z" fill="#B0A6F9" stroke="#32313B" stroke-width="0.64125" stroke-miterlimit="10" stroke-linejoin="round"/>
<path d="M76.8125 40.2913L83.0324 33.0562" stroke="#32313B" stroke-width="0.64125" stroke-miterlimit="10" stroke-linejoin="round"/>
<path d="M18.4951 38.8427C23.2515 38.8427 27.1073 37.8936 27.1073 36.7229C27.1073 35.5521 23.2515 34.603 18.4951 34.603C13.7387 34.603 9.88281 35.5521 9.88281 36.7229C9.88281 37.8936 13.7387 38.8427 18.4951 38.8427Z" fill="#32313B"/>
<path d="M67.5809 38.8427C72.3372 38.8427 76.193 37.8936 76.193 36.7229C76.193 35.5521 72.3372 34.603 67.5809 34.603C62.8245 34.603 58.9688 35.5521 58.9688 36.7229C58.9688 37.8936 62.8245 38.8427 67.5809 38.8427Z" fill="#32313B"/>
<path d="M70.6083 22.3144C69.0567 18.118 66.7854 14.4191 63.8572 11.3199C58.0793 5.20486 50.0937 1.8374 41.371 1.8374C32.6484 1.8374 24.6628 5.20499 18.8848 11.3199C15.9566 14.419 13.6853 18.118 12.1339 22.3144C10.5624 26.5654 9.76562 31.2464 9.76562 36.2275C9.76562 37.3415 12.8879 38.2445 16.7391 38.2445C20.5904 38.2445 23.7127 37.3415 23.7127 36.2275C23.7127 29.8755 25.5487 24.5748 29.0225 20.8987C32.1837 17.5529 36.4539 15.7845 41.3712 15.7845C46.2884 15.7845 50.5585 17.5529 53.72 20.8987C57.1935 24.5748 59.0295 29.8755 59.0295 36.2275C59.0295 37.3415 62.1519 38.2445 66.0031 38.2445C69.8545 38.2445 72.9767 37.3415 72.9767 36.2275C72.9767 31.2464 72.1798 26.5654 70.6083 22.3144Z" fill="#49B889" stroke="#32313B" stroke-width="0.64125" stroke-miterlimit="10" stroke-linecap="round" stroke-linejoin="round"/>
<path d="M68.9342 37.8597C68.9342 17.9245 56.5946 5.88428 41.3733 5.88428C26.1518 5.88428 13.8125 17.9245 13.8125 37.8597L13.8205 38.0612C14.7092 38.1799 15.6982 38.2466 16.7413 38.2466C20.5927 38.2466 23.7149 37.3436 23.7149 36.2296C23.7149 29.8777 25.551 24.577 29.0247 20.9008C32.186 17.555 36.4562 15.7866 41.3734 15.7866C46.2907 15.7866 50.5607 17.555 53.7222 20.9008C57.1958 24.577 59.0318 29.8777 59.0318 36.2296C59.0318 37.3436 62.1542 38.2466 66.0054 38.2466C67.0501 38.2466 68.0406 38.1798 68.9304 38.0605L68.9342 37.8597Z" fill="#FBB598" stroke="#32313B" stroke-width="0.64125" stroke-miterlimit="10" stroke-linejoin="round"/>
<path d="M41.3716 10.3452C28.8909 10.3452 18.7734 20.7573 18.7734 37.9971L18.8082 38.1543C21.6496 37.8995 23.7132 37.1333 23.7132 36.2277C23.7132 29.8758 25.5493 24.5751 29.0231 20.8989C32.1843 17.5531 36.4545 15.7847 41.3717 15.7847C46.289 15.7847 50.559 17.5531 53.7205 20.8989C57.1941 24.5751 59.0301 29.8758 59.0301 36.2277C59.0301 37.1346 61.0999 37.9015 63.9474 38.1555L63.9699 37.9972C63.9698 20.7572 53.8521 10.3452 41.3716 10.3452Z" fill="#FDB2D2" stroke="#32313B" stroke-width="0.64125" stroke-miterlimit="10" stroke-linejoin="round"/>
</svg>
