<svg width="74" height="51" viewBox="0 0 74 51" fill="none" xmlns="http://www.w3.org/2000/svg">
<path d="M73.5439 45.5796H1.16406V50.7258H67.4018L73.5439 45.5796Z" fill="#32313B"/>
<path d="M67.3917 1.93896H37.1918L31.3906 6.39893V17.9936H44.2796V34.147H37.1918L31.3906 38.6068V50.2013H61.5905L67.3917 45.7415V1.93896Z" fill="#49B889" stroke="#32313B" stroke-width="0.7125" stroke-miterlimit="10" stroke-linejoin="round"/>
<path d="M40.407 13.6975H27.8917V2.10303H6.91068L1.10938 6.56286V50.3655H22.0904L27.8917 45.9057V38.7708H34.6059L40.407 34.311V13.6975Z" fill="#8173E6" stroke="#32313B" stroke-width="0.7125" stroke-miterlimit="10" stroke-linejoin="round"/>
<path d="M34.6059 18.1586H22.0904V6.56396H1.10938V50.3666H22.0904V38.772H34.6059V18.1586Z" fill="#B0A6F9" stroke="#32313B" stroke-width="0.7125" stroke-miterlimit="10" stroke-linejoin="round"/>
<path d="M22.0898 6.56286L27.8912 2.10303" stroke="#32313B" stroke-width="0.7125" stroke-miterlimit="10" stroke-linejoin="round"/>
<path d="M34.6055 18.1567L40.4066 13.6968" stroke="#32313B" stroke-width="0.7125" stroke-miterlimit="10" stroke-linejoin="round"/>
<path d="M22.0898 38.7749V50.6373L27.7839 45.9348V38.7749H22.0898Z" fill="#32313B"/>
<path d="M22.0898 18.1567L27.8912 13.6968" stroke="#32313B" stroke-width="0.7125" stroke-miterlimit="10" stroke-linejoin="round"/>
<path d="M44.2796 18.1664H31.3906V6.57178H61.5905V50.3743H31.3906V38.7796H44.2796V18.1664Z" fill="#81D8B4" stroke="#32313B" stroke-width="0.7125" stroke-miterlimit="10" stroke-linejoin="round"/>
<path d="M61.5938 6.39893L67.3948 1.93896" stroke="#32313B" stroke-width="0.7125" stroke-miterlimit="10" stroke-linejoin="round"/>
<path d="M34.6016 18.1499V38.6213L40.3821 34.3041V18.2663L34.6016 18.1499Z" fill="#32313B"/>
</svg>
