<svg width="68" height="60" viewBox="0 0 68 60" fill="none" xmlns="http://www.w3.org/2000/svg">
<path d="M61.5 2.48697e-06C65.0899 2.64929e-06 68 3.01043 68 6.72398C68 10.4375 65.0899 13.448 61.5 13.448L6.5 13.448C2.91015 13.448 -1.56917e-07 10.4375 0 6.72398C1.56917e-07 3.01043 2.91015 -1.62325e-07 6.5 0L61.5 2.48697e-06Z" fill="#84CC16"/>
<path d="M45.5 23.2766C49.0899 23.2766 52 26.2871 52 30.0006C52 33.7142 49.0899 36.7246 45.5 36.7246H22.5C18.9102 36.7246 16 33.7142 16 30.0006C16 26.2871 18.9102 23.2766 22.5 23.2766L45.5 23.2766Z" fill="#84CC16"/>
<path d="M34.0004 46.552C37.5902 46.552 40.5004 49.5625 40.5004 53.276C40.5004 56.9896 37.5902 60 34.0004 60C30.4105 60 27.5004 56.9896 27.5004 53.276C27.5004 49.5625 30.4105 46.552 34.0004 46.552Z" fill="#84CC16"/>
</svg>
