<svg width="12" height="12" viewBox="0 0 12 12" fill="none" xmlns="http://www.w3.org/2000/svg">
<mask id="path-1-inside-1_4211_10934" fill="white">
<path d="M6.53048 6.00007L9.64032 2.89023C9.71057 2.81989 9.75002 2.72453 9.74998 2.62512C9.74995 2.52571 9.71045 2.43037 9.64015 2.36008C9.56986 2.28978 9.47452 2.25028 9.37511 2.25024C9.2757 2.25021 9.18034 2.28966 9.11 2.35991L6.00016 5.46975L2.89032 2.35991C2.81998 2.28966 2.72462 2.25021 2.62521 2.25024C2.52579 2.25028 2.43046 2.28978 2.36017 2.36008C2.28987 2.43037 2.25036 2.52571 2.25033 2.62512C2.2503 2.72453 2.28975 2.81989 2.36 2.89023L5.46984 6.00007L2.36 9.10991C2.32514 9.14472 2.29749 9.18606 2.27861 9.23157C2.25974 9.27708 2.25002 9.32585 2.25 9.37512C2.24998 9.42438 2.25968 9.47317 2.27852 9.51869C2.29737 9.5642 2.325 9.60556 2.35983 9.6404C2.39467 9.67523 2.43603 9.70286 2.48154 9.72171C2.52706 9.74055 2.57585 9.75024 2.62511 9.75023C2.67437 9.75021 2.72315 9.74049 2.76866 9.72162C2.81416 9.70274 2.8555 9.67509 2.89032 9.64023L6.00016 6.53039L9.11 9.64023C9.18034 9.71048 9.2757 9.74993 9.37511 9.7499C9.47452 9.74987 9.56986 9.71036 9.64015 9.64006C9.71045 9.56977 9.74995 9.47443 9.74998 9.37502C9.75002 9.27561 9.71057 9.18025 9.64032 9.10991L6.53048 6.00007Z"/>
</mask>
<path d="M6.53048 6.00007L9.64032 2.89023C9.71057 2.81989 9.75002 2.72453 9.74998 2.62512C9.74995 2.52571 9.71045 2.43037 9.64015 2.36008C9.56986 2.28978 9.47452 2.25028 9.37511 2.25024C9.2757 2.25021 9.18034 2.28966 9.11 2.35991L6.00016 5.46975L2.89032 2.35991C2.81998 2.28966 2.72462 2.25021 2.62521 2.25024C2.52579 2.25028 2.43046 2.28978 2.36017 2.36008C2.28987 2.43037 2.25036 2.52571 2.25033 2.62512C2.2503 2.72453 2.28975 2.81989 2.36 2.89023L5.46984 6.00007L2.36 9.10991C2.32514 9.14472 2.29749 9.18606 2.27861 9.23157C2.25974 9.27708 2.25002 9.32585 2.25 9.37512C2.24998 9.42438 2.25968 9.47317 2.27852 9.51869C2.29737 9.5642 2.325 9.60556 2.35983 9.6404C2.39467 9.67523 2.43603 9.70286 2.48154 9.72171C2.52706 9.74055 2.57585 9.75024 2.62511 9.75023C2.67437 9.75021 2.72315 9.74049 2.76866 9.72162C2.81416 9.70274 2.8555 9.67509 2.89032 9.64023L6.00016 6.53039L9.11 9.64023C9.18034 9.71048 9.2757 9.74993 9.37511 9.7499C9.47452 9.74987 9.56986 9.71036 9.64015 9.64006C9.71045 9.56977 9.74995 9.47443 9.74998 9.37502C9.75002 9.27561 9.71057 9.18025 9.64032 9.10991L6.53048 6.00007Z" fill="#4C6C9F"/>
<path d="M6.53048 6.00007L5.11626 4.58586L3.70205 6.00007L5.11626 7.41428L6.53048 6.00007ZM9.64032 2.89023L11.0545 4.30444L11.0554 4.30356L9.64032 2.89023ZM9.11 2.35991L7.69667 0.94481L7.69579 0.945697L9.11 2.35991ZM6.00016 5.46975L4.58595 6.88396L6.00016 8.29818L7.41437 6.88396L6.00016 5.46975ZM2.89032 2.35991L4.30453 0.945697L4.30364 0.944811L2.89032 2.35991ZM2.36 2.89023L0.944899 4.30356L0.945786 4.30444L2.36 2.89023ZM5.46984 6.00007L6.88405 7.41428L8.29827 6.00007L6.88405 4.58586L5.46984 6.00007ZM2.36 9.10991L3.77333 10.525L3.77421 10.5241L2.36 9.10991ZM2.89032 9.64023L1.4761 8.22602L1.47522 8.2269L2.89032 9.64023ZM6.00016 6.53039L7.41437 5.11618L6.00016 3.70196L4.58595 5.11618L6.00016 6.53039ZM9.11 9.64023L7.69579 11.0544L7.69667 11.0553L9.11 9.64023ZM9.64032 9.10991L11.0554 7.69658L11.0545 7.6957L9.64032 9.10991ZM7.94469 7.41428L11.0545 4.30444L8.2261 1.47602L5.11626 4.58586L7.94469 7.41428ZM11.0554 4.30356C11.5004 3.85806 11.7502 3.25412 11.75 2.62449L7.74998 2.62575C7.74985 2.19495 7.92078 1.78172 8.22522 1.4769L11.0554 4.30356ZM11.75 2.62449C11.7498 1.99487 11.4996 1.39108 11.0544 0.945863L8.22594 3.77429C7.92131 3.46966 7.75012 3.05654 7.74998 2.62575L11.75 2.62449ZM11.0544 0.945863C10.6091 0.500647 10.0054 0.250442 9.37574 0.250244L9.37448 4.25024C8.94368 4.25011 8.53056 4.07891 8.22594 3.77429L11.0544 0.945863ZM9.37574 0.250244C8.74611 0.250047 8.14217 0.499876 7.69667 0.944811L10.5233 3.77501C10.2185 4.07944 9.80529 4.25038 9.37448 4.25024L9.37574 0.250244ZM7.69579 0.945697L4.58595 4.05554L7.41437 6.88396L10.5242 3.77412L7.69579 0.945697ZM7.41437 4.05554L4.30453 0.945697L1.4761 3.77412L4.58595 6.88396L7.41437 4.05554ZM4.30364 0.944811C3.85815 0.499876 3.25421 0.250047 2.62458 0.250244L2.62583 4.25024C2.19503 4.25038 1.78181 4.07944 1.47699 3.77501L4.30364 0.944811ZM2.62458 0.250244C1.99495 0.250442 1.39117 0.500648 0.945952 0.945863L3.77438 3.77429C3.46976 4.07891 3.05664 4.25011 2.62583 4.25024L2.62458 0.250244ZM0.945952 0.945863C0.500736 1.39108 0.25053 1.99486 0.250333 2.62449L4.25033 2.62575C4.2502 3.05655 4.079 3.46967 3.77438 3.77429L0.945952 0.945863ZM0.250333 2.62449C0.250135 3.25412 0.499964 3.85806 0.944899 4.30356L3.7751 1.4769C4.07953 1.78172 4.25047 2.19494 4.25033 2.62575L0.250333 2.62449ZM0.945786 4.30444L4.05563 7.41428L6.88405 4.58586L3.77421 1.47602L0.945786 4.30444ZM4.05563 4.58586L0.945786 7.6957L3.77421 10.5241L6.88405 7.41428L4.05563 4.58586ZM0.946673 7.69481C0.725912 7.91529 0.550754 8.17712 0.431213 8.46533L4.12601 9.99781C4.04422 10.195 3.92437 10.3742 3.77333 10.525L0.946673 7.69481ZM0.431213 8.46533C0.311676 8.75354 0.250098 9.06248 0.25 9.37449L4.25 9.37575C4.24993 9.58923 4.2078 9.80061 4.12601 9.99781L0.431213 8.46533ZM0.25 9.37449C0.249902 9.6865 0.311285 9.99548 0.430643 10.2838L4.1264 8.75361C4.20807 8.95086 4.25007 9.16226 4.25 9.37575L0.25 9.37449ZM0.430643 10.2838C0.549999 10.572 0.72499 10.834 0.945619 11.0546L3.77405 8.22618C3.925 8.37714 4.04474 8.55636 4.1264 8.75361L0.430643 10.2838ZM0.945619 11.0546C1.16625 11.2752 1.42819 11.4502 1.71647 11.5696L3.24662 7.87383C3.44386 7.95549 3.62308 8.07522 3.77405 8.22618L0.945619 11.0546ZM1.71647 11.5696C2.00475 11.6889 2.31373 11.7503 2.62574 11.7502L2.62448 7.75023C2.83797 7.75016 3.04937 7.79216 3.24662 7.87383L1.71647 11.5696ZM2.62574 11.7502C2.93775 11.7501 3.24669 11.6886 3.53489 11.569L2.00242 7.87422C2.19962 7.79243 2.411 7.7503 2.62448 7.75023L2.62574 11.7502ZM3.53489 11.569C3.82311 11.4495 4.08493 11.2743 4.30542 11.0536L1.47522 8.2269C1.62608 8.07586 1.80522 7.95601 2.00242 7.87422L3.53489 11.569ZM4.30453 11.0544L7.41437 7.9446L4.58595 5.11618L1.4761 8.22602L4.30453 11.0544ZM4.58595 7.9446L7.69579 11.0544L10.5242 8.22602L7.41437 5.11618L4.58595 7.9446ZM7.69667 11.0553C8.14216 11.5003 8.7461 11.7501 9.37574 11.7499L9.37448 7.7499C9.80529 7.74976 10.2185 7.9207 10.5233 8.22513L7.69667 11.0553ZM9.37574 11.7499C10.0054 11.7497 10.6092 11.4995 11.0544 11.0543L8.22594 8.22585C8.53056 7.92123 8.94368 7.75003 9.37448 7.7499L9.37574 11.7499ZM11.0544 11.0543C11.4996 10.6091 11.7498 10.0053 11.75 9.37565L7.74998 9.37439C7.75012 8.9436 7.92131 8.53048 8.22594 8.22585L11.0544 11.0543ZM11.75 9.37565C11.7502 8.74602 11.5004 8.14208 11.0554 7.69658L8.22522 10.5232C7.92078 10.2184 7.74985 9.80519 7.74998 9.37439L11.75 9.37565ZM11.0545 7.6957L7.94469 4.58586L5.11626 7.41428L8.2261 10.5241L11.0545 7.6957Z" fill="#4C6C9F" mask="url(#path-1-inside-1_4211_10934)"/>
</svg>
